<mxfile host="app.diagrams.net" agent="Mozilla/5.0 (Windows NT 10.0; Win64; x64; rv:138.0) Gecko/20100101 Firefox/138.0" version="27.0.2">
  <diagram name="Page-1" id="xVlmi_5LvSyTSZL3fP0F">
    <mxGraphModel dx="2066" dy="1111" grid="1" gridSize="10" guides="1" tooltips="1" connect="1" arrows="1" fold="1" page="1" pageScale="1" pageWidth="850" pageHeight="1100" math="0" shadow="0">
      <root>
        <mxCell id="0" />
        <mxCell id="1" parent="0" />
        <mxCell id="ytrhNFWvZo54oqQApBWc-3" value="" style="edgeStyle=orthogonalEdgeStyle;rounded=0;orthogonalLoop=1;jettySize=auto;html=1;" parent="1" source="ytrhNFWvZo54oqQApBWc-1" target="ytrhNFWvZo54oqQApBWc-2" edge="1">
          <mxGeometry relative="1" as="geometry" />
        </mxCell>
        <mxCell id="ytrhNFWvZo54oqQApBWc-1" value="&lt;div&gt;Start&lt;/div&gt;" style="rounded=1;whiteSpace=wrap;html=1;" parent="1" vertex="1">
          <mxGeometry x="80" y="160" width="120" height="60" as="geometry" />
        </mxCell>
        <mxCell id="ytrhNFWvZo54oqQApBWc-5" value="" style="edgeStyle=orthogonalEdgeStyle;rounded=0;orthogonalLoop=1;jettySize=auto;html=1;" parent="1" source="ytrhNFWvZo54oqQApBWc-2" target="ytrhNFWvZo54oqQApBWc-4" edge="1">
          <mxGeometry relative="1" as="geometry" />
        </mxCell>
        <mxCell id="ytrhNFWvZo54oqQApBWc-2" value="&lt;div&gt;Multi-Option selection&lt;/div&gt;&lt;div&gt;for what operation&lt;/div&gt;" style="rounded=0;whiteSpace=wrap;html=1;" parent="1" vertex="1">
          <mxGeometry x="80" y="270" width="120" height="60" as="geometry" />
        </mxCell>
        <mxCell id="ytrhNFWvZo54oqQApBWc-7" value="" style="edgeStyle=orthogonalEdgeStyle;rounded=0;orthogonalLoop=1;jettySize=auto;html=1;" parent="1" source="ytrhNFWvZo54oqQApBWc-4" target="ytrhNFWvZo54oqQApBWc-6" edge="1">
          <mxGeometry relative="1" as="geometry" />
        </mxCell>
        <mxCell id="ytrhNFWvZo54oqQApBWc-8" value="If option = 1" style="edgeLabel;html=1;align=center;verticalAlign=middle;resizable=0;points=[];" parent="ytrhNFWvZo54oqQApBWc-7" vertex="1" connectable="0">
          <mxGeometry x="-0.1455" y="-2" relative="1" as="geometry">
            <mxPoint as="offset" />
          </mxGeometry>
        </mxCell>
        <mxCell id="ytrhNFWvZo54oqQApBWc-12" style="edgeStyle=orthogonalEdgeStyle;rounded=0;orthogonalLoop=1;jettySize=auto;html=1;exitX=1;exitY=0.5;exitDx=0;exitDy=0;entryX=0.5;entryY=0;entryDx=0;entryDy=0;" parent="1" source="ytrhNFWvZo54oqQApBWc-4" target="ytrhNFWvZo54oqQApBWc-9" edge="1">
          <mxGeometry relative="1" as="geometry">
            <Array as="points">
              <mxPoint x="190" y="420" />
              <mxPoint x="330" y="420" />
            </Array>
          </mxGeometry>
        </mxCell>
        <mxCell id="ytrhNFWvZo54oqQApBWc-13" value="If option =/= 1" style="edgeLabel;html=1;align=center;verticalAlign=middle;resizable=0;points=[];" parent="ytrhNFWvZo54oqQApBWc-12" vertex="1" connectable="0">
          <mxGeometry x="-0.08" y="-1" relative="1" as="geometry">
            <mxPoint as="offset" />
          </mxGeometry>
        </mxCell>
        <mxCell id="ytrhNFWvZo54oqQApBWc-30" style="edgeStyle=orthogonalEdgeStyle;rounded=0;orthogonalLoop=1;jettySize=auto;html=1;exitX=0.75;exitY=0;exitDx=0;exitDy=0;entryX=0.5;entryY=0;entryDx=0;entryDy=0;" parent="1" source="ytrhNFWvZo54oqQApBWc-4" target="ytrhNFWvZo54oqQApBWc-28" edge="1">
          <mxGeometry relative="1" as="geometry" />
        </mxCell>
        <mxCell id="ytrhNFWvZo54oqQApBWc-31" value="If Option = 4" style="edgeLabel;html=1;align=center;verticalAlign=middle;resizable=0;points=[];" parent="ytrhNFWvZo54oqQApBWc-30" vertex="1" connectable="0">
          <mxGeometry x="-0.5318" y="3" relative="1" as="geometry">
            <mxPoint as="offset" />
          </mxGeometry>
        </mxCell>
        <mxCell id="ytrhNFWvZo54oqQApBWc-4" value="&lt;div&gt;User selects&lt;/div&gt;&lt;div&gt;their option&lt;/div&gt;" style="shape=parallelogram;perimeter=parallelogramPerimeter;whiteSpace=wrap;html=1;fixedSize=1;" parent="1" vertex="1">
          <mxGeometry x="80" y="360" width="120" height="60" as="geometry" />
        </mxCell>
        <mxCell id="ytrhNFWvZo54oqQApBWc-16" value="" style="edgeStyle=orthogonalEdgeStyle;rounded=0;orthogonalLoop=1;jettySize=auto;html=1;" parent="1" source="ytrhNFWvZo54oqQApBWc-6" edge="1">
          <mxGeometry relative="1" as="geometry">
            <mxPoint x="140" y="670" as="targetPoint" />
          </mxGeometry>
        </mxCell>
        <mxCell id="ytrhNFWvZo54oqQApBWc-18" value="" style="edgeStyle=orthogonalEdgeStyle;rounded=0;orthogonalLoop=1;jettySize=auto;html=1;" parent="1" source="ytrhNFWvZo54oqQApBWc-6" target="ytrhNFWvZo54oqQApBWc-17" edge="1">
          <mxGeometry relative="1" as="geometry" />
        </mxCell>
        <mxCell id="ytrhNFWvZo54oqQApBWc-6" value="Packet Capturing" style="rounded=0;whiteSpace=wrap;html=1;" parent="1" vertex="1">
          <mxGeometry x="80" y="530" width="120" height="60" as="geometry" />
        </mxCell>
        <mxCell id="ytrhNFWvZo54oqQApBWc-14" style="edgeStyle=orthogonalEdgeStyle;rounded=0;orthogonalLoop=1;jettySize=auto;html=1;exitX=0.75;exitY=0;exitDx=0;exitDy=0;entryX=1;entryY=0;entryDx=0;entryDy=0;" parent="1" source="ytrhNFWvZo54oqQApBWc-9" target="ytrhNFWvZo54oqQApBWc-4" edge="1">
          <mxGeometry relative="1" as="geometry">
            <mxPoint x="360" y="360" as="targetPoint" />
            <Array as="points">
              <mxPoint x="360" y="390" />
              <mxPoint x="200" y="390" />
            </Array>
          </mxGeometry>
        </mxCell>
        <mxCell id="ytrhNFWvZo54oqQApBWc-9" value="Packets need to be captured first" style="rounded=0;whiteSpace=wrap;html=1;" parent="1" vertex="1">
          <mxGeometry x="270" y="450" width="120" height="60" as="geometry" />
        </mxCell>
        <mxCell id="ytrhNFWvZo54oqQApBWc-17" value="Packets are saved into a .csv" style="whiteSpace=wrap;html=1;rounded=0;" parent="1" vertex="1">
          <mxGeometry x="280" y="530" width="120" height="60" as="geometry" />
        </mxCell>
        <mxCell id="ytrhNFWvZo54oqQApBWc-21" value="" style="edgeStyle=orthogonalEdgeStyle;rounded=0;orthogonalLoop=1;jettySize=auto;html=1;" parent="1" source="ytrhNFWvZo54oqQApBWc-19" target="ytrhNFWvZo54oqQApBWc-20" edge="1">
          <mxGeometry relative="1" as="geometry" />
        </mxCell>
        <mxCell id="ytrhNFWvZo54oqQApBWc-22" value="If option = 2" style="edgeLabel;html=1;align=center;verticalAlign=middle;resizable=0;points=[];" parent="ytrhNFWvZo54oqQApBWc-21" vertex="1" connectable="0">
          <mxGeometry x="-0.2952" y="4" relative="1" as="geometry">
            <mxPoint as="offset" />
          </mxGeometry>
        </mxCell>
        <mxCell id="ytrhNFWvZo54oqQApBWc-24" value="" style="edgeStyle=orthogonalEdgeStyle;rounded=0;orthogonalLoop=1;jettySize=auto;html=1;" parent="1" source="ytrhNFWvZo54oqQApBWc-19" target="ytrhNFWvZo54oqQApBWc-23" edge="1">
          <mxGeometry relative="1" as="geometry" />
        </mxCell>
        <mxCell id="ytrhNFWvZo54oqQApBWc-25" value="If Option = 3" style="edgeLabel;html=1;align=center;verticalAlign=middle;resizable=0;points=[];" parent="ytrhNFWvZo54oqQApBWc-24" vertex="1" connectable="0">
          <mxGeometry x="0.1636" y="4" relative="1" as="geometry">
            <mxPoint as="offset" />
          </mxGeometry>
        </mxCell>
        <mxCell id="ytrhNFWvZo54oqQApBWc-26" style="edgeStyle=orthogonalEdgeStyle;rounded=0;orthogonalLoop=1;jettySize=auto;html=1;exitX=0;exitY=0.5;exitDx=0;exitDy=0;" parent="1" source="ytrhNFWvZo54oqQApBWc-19" edge="1">
          <mxGeometry relative="1" as="geometry">
            <mxPoint x="110" y="470" as="targetPoint" />
            <Array as="points">
              <mxPoint x="51" y="730" />
              <mxPoint x="51" y="470" />
            </Array>
          </mxGeometry>
        </mxCell>
        <mxCell id="ytrhNFWvZo54oqQApBWc-27" style="edgeStyle=orthogonalEdgeStyle;rounded=0;orthogonalLoop=1;jettySize=auto;html=1;exitX=1;exitY=1;exitDx=0;exitDy=0;entryX=0;entryY=0.5;entryDx=0;entryDy=0;" parent="1" source="ytrhNFWvZo54oqQApBWc-19" target="ytrhNFWvZo54oqQApBWc-28" edge="1">
          <mxGeometry relative="1" as="geometry">
            <mxPoint x="250" y="840" as="targetPoint" />
            <Array as="points">
              <mxPoint x="170" y="820" />
              <mxPoint x="360" y="820" />
              <mxPoint x="360" y="950" />
            </Array>
          </mxGeometry>
        </mxCell>
        <mxCell id="ytrhNFWvZo54oqQApBWc-29" value="If Option = 4" style="edgeLabel;html=1;align=center;verticalAlign=middle;resizable=0;points=[];" parent="ytrhNFWvZo54oqQApBWc-27" vertex="1" connectable="0">
          <mxGeometry x="0.1037" y="-1" relative="1" as="geometry">
            <mxPoint as="offset" />
          </mxGeometry>
        </mxCell>
        <mxCell id="ytrhNFWvZo54oqQApBWc-19" value="User chooses what to do with captured packets" style="rhombus;whiteSpace=wrap;html=1;" parent="1" vertex="1">
          <mxGeometry x="80" y="670" width="120" height="120" as="geometry" />
        </mxCell>
        <mxCell id="ytrhNFWvZo54oqQApBWc-20" value="Packets are displayed in text" style="rounded=0;whiteSpace=wrap;html=1;" parent="1" vertex="1">
          <mxGeometry x="305" y="700" width="120" height="60" as="geometry" />
        </mxCell>
        <mxCell id="ytrhNFWvZo54oqQApBWc-23" value="Packets are displayed on a graph" style="whiteSpace=wrap;html=1;" parent="1" vertex="1">
          <mxGeometry x="80" y="900" width="120" height="60" as="geometry" />
        </mxCell>
        <mxCell id="ytrhNFWvZo54oqQApBWc-28" value="Application quits" style="rounded=0;whiteSpace=wrap;html=1;" parent="1" vertex="1">
          <mxGeometry x="390" y="920" width="120" height="60" as="geometry" />
        </mxCell>
      </root>
    </mxGraphModel>
  </diagram>
</mxfile>
